:version 1.10
:name ASF
:units
  mass 1
  length 1
  angle deg
:documentation
  ASF file generated by Kaydara
:root
  axis xyz
  order  tx ty tz rx ry rz
  position 0 0 0
  orientation 0 0 0
:bonedata
  begin
    id 1
    name RightUpLegDummy
    direction -0.718183 -0.695806 0.00816078
    length 4.904
    axis 0 0 0 xyz
  end
  begin
    id 2
    name RightUpLeg
    direction 3.53989e-006 -0.995788 0.0916897
    length 17.4976
    axis -3.49089 -0.000906621 0.000287158 xyz
    dof rx ry rz
  end
  begin
    id 3
    name RightLeg
    direction 0.00371093 -0.995096 -0.0988418
    length 16.5821
    axis 3.68512 0.0193738 -0.131023 xyz
    dof rx ry rz
  end
  begin
    id 4
    name RightFoot
    direction 0.000791514 -0.46099 0.887405
    length 3.77069
    axis 4.84075e-005 -0.120479 -0.188788 xyz
    dof rx ry rz
  end
  begin
    id 5
    name RightToes
    direction 0.00124746 -0.014064 0.9999
    length 3.85082
    axis 0.00048216 0.542163 -0.142577 xyz
    dof rx ry rz
  end
  begin
    id 6
    name SpineDummy
    direction 8.36599e-015 1 5.97571e-016
    length 4.6813
    axis 0 0 0 xyz
  end
  begin
    id 7
    name Spine
    direction -4.63632e-008 0.999988 0.00495137
    length 10.1015
    axis -0.00138897 0.000121419 3.25764e-006 xyz
    dof rx ry rz
  end
  begin
    id 8
    name Spine1
    direction 0 0 0
    length 0
    axis -0.00138896 0.000121452 2.39764e-006 xyz
    dof rx ry rz
  end
  begin
    id 9
    name HEadDummy
    direction -3.91456e-008 0.999999 0.00127422
    length 3.43865
    axis -0.00138896 0.000121452 2.39764e-006 xyz
  end
  begin
    id 10
    name HEad
    direction -0.0222688 0.980941 0.193023
    length 5.12695
    axis -0.00138895 0.000121452 2.39764e-006 xyz
    dof rx ry rz
  end
  begin
    id 11
    name LeftShoulder1Dummy
    direction 0.998891 -0.0402508 -0.0244456
    length 3.5433
    axis -0.00138896 0.000121452 2.39764e-006 xyz
  end
  begin
    id 12
    name LeftShoulder1
    direction 0.99951 -0.000327743 0.0313091
    length 4.05031
    axis -0.00138896 0.000121452 2.39764e-006 xyz
    dof rx ry rz
  end
  begin
    id 13
    name LeftArm
    direction 0.998561 -0.00100054 -0.0536182
    length 10.3537
    axis -23.1894 0.134784 0.96751 xyz
    dof rx ry rz
  end
  begin
    id 14
    name LeftForeArm
    direction 0.998903 0.00866434 0.046012
    length 8.70632
    axis -9.91835 -0.06569 -0.177792 xyz
    dof rx ry rz
  end
  begin
    id 15
    name LeftHand
    direction 0.992938 -0.0411636 0.11126
    length 5.32135
    axis -0.00960227 -0.00340091 0.185174 xyz
    dof rx ry rz
  end
  begin
    id 16
    name RightShoulderDummy
    direction -0.998891 -0.0402509 -0.0244414
    length 3.5433
    axis -0.00138896 0.000121452 2.39764e-006 xyz
  end
  begin
    id 17
    name RightShoulder
    direction -0.99951 -0.000327827 0.0313133
    length 4.05031
    axis 0.215806 0.000203644 -0.00680151 xyz
    dof rx ry rz
  end
  begin
    id 18
    name RightArm
    direction -0.998573 -0.000999583 -0.053403
    length 10.3947
    axis -23.2009 -0.134239 -0.9641 xyz
    dof rx ry rz
  end
  begin
    id 19
    name RightForeArm
    direction -0.998898 0.00868026 0.0461306
    length 8.68355
    axis -9.92322 0.0658061 0.178869 xyz
    dof rx ry rz
  end
  begin
    id 20
    name RightHand
    direction -0.992843 -0.0414603 0.112003
    length 5.28593
    axis -0.00960634 0.00330671 -0.185226 xyz
    dof rx ry rz
  end
  begin
    id 21
    name LeftUpLegDummy
    direction 0.718183 -0.695806 0.00816078
    length 4.904
    axis 0 0 0 xyz
  end
  begin
    id 22
    name LeftUpLeg
    direction -6.8115e-006 -0.995793 0.0916336
    length 17.4976
    axis -3.48766 0.00143441 -0.000523914 xyz
    dof rx ry rz
  end
  begin
    id 23
    name LeftLeg
    direction -0.00601357 -0.995091 -0.0987824
    length 16.5821
    axis 3.68177 -0.00654038 -0.00028478 xyz
    dof rx ry rz
  end
  begin
    id 24
    name LeftFoot
    direction -0.00417578 -0.460984 0.887399
    length 3.77069
    axis 1.87232e-006 4.66002e-005 -8.1837e-006 xyz
    dof rx ry rz
  end
  begin
    id 25
    name LeftToes
    direction 0.00818058 -0.00485161 0.999955
    length 3.85048
    axis 1.06246e-005 4.65855e-005 -8.18502e-006 xyz
    dof rx ry rz
  end
:hierarchy
  begin
    root RightUpLegDummy SpineDummy LeftUpLegDummy
    RightUpLegDummy RightUpLeg
    RightUpLeg RightLeg
    RightLeg RightFoot
    RightFoot RightToes
    SpineDummy Spine
    Spine Spine1
    Spine1 HEadDummy LeftShoulder1Dummy RightShoulderDummy
    HEadDummy HEad
    LeftShoulder1Dummy LeftShoulder1
    LeftShoulder1 LeftArm
    LeftArm LeftForeArm
    LeftForeArm LeftHand
    RightShoulderDummy RightShoulder
    RightShoulder RightArm
    RightArm RightForeArm
    RightForeArm RightHand
    LeftUpLegDummy LeftUpLeg
    LeftUpLeg LeftLeg
    LeftLeg LeftFoot
    LeftFoot LeftToes
  end

:SAMPLES-PER-SECOND 24
:FULLY-SPECIFIED
:DEGREES
17
root  4.66545 35.7839 20.5037 -3.12305 -55.3628 10.5114
RightUpLeg  -19.4982 -31.9453 -13.7917
RightLeg  52.8376 3.12035 4.03635
RightFoot  -29.2639 0.74766 5.9997
RightToes  -1.74623e-010 0 -2.59999e-017
Spine  18.1604 0.125618 4.24052
Spine1  8.43381 4.93805 -15.9077
HEad  -8.40909 29.222 -26.1051
LeftShoulder1  2.17979 -4.17546 -22.0612
LeftArm  5.97769 23.628 -19.4421
LeftForeArm  135.694 -73.275 -142.385
LeftHand  0.420414 8.42277 16.7151
RightShoulder  1.3509 2.89374 14.2824
RightArm  -26.7036 43.6854 17.7009
RightForeArm  21.1546 61.8424 19.4199
RightHand  -0.346991 -3.58695 -21.8302
LeftUpLeg  -34.7752 8.95422 9.66236
LeftLeg  26.2091 -13.2607 -6.67741
LeftFoot  -1.66969 2.06898 -24.0199
LeftToes  -6.27559e-011 -2.10356e-011 8.24929e-012
18
root  3.88748 37.8183 18.2382 0.999146 -39.9558 14.848
RightUpLeg  -20.399 -46.2947 -9.70445
RightLeg  40.1512 2.10635 1.59937
RightFoot  -24.4999 0.33599 4.36065
RightToes  -1.74623e-010 0 -2.59999e-017
Spine  21.452 3.62451 14.0733
Spine1  9.7606 14.4705 -28.931
HEad  -3.23062 37.1877 -27.2972
LeftShoulder1  2.06059 -3.96523 -21.2231
LeftArm  7.88482 13.2276 -24.9123
LeftForeArm  143.846 -70.9626 -148.268
LeftHand  0.28426 7.67486 15.2494
RightShoulder  1.54074 3.79752 14.2575
RightArm  -12.7682 44.5542 28.2894
RightForeArm  21.5393 61.3998 18.9576
RightHand  -0.680491 -1.78898 -21.6425
LeftUpLeg  -33.6032 1.99079 8.23277
LeftLeg  3.97319 -8.96453 -4.96932
LeftFoot  -2.10991 2.87036 -34.4132
LeftToes  -6.27559e-011 -2.10356e-011 8.24929e-012
19
root  2.557 40.0822 16.2633 9.53992 -20.7544 20.992
RightUpLeg  -42.8596 -67.4665 13.8914
RightLeg  26.7486 6.54917 1.83533
RightFoot  -14.3091 0.00864429 3.83527
RightToes  -1.74623e-010 0 -2.59999e-017
Spine  26.5809 5.18305 16.1309
Spine1  9.35304 17.9343 -32.9062
HEad  -2.87142 43.9078 -31.9264
LeftShoulder1  2.16249 -3.51851 -24.604
LeftArm  11.261 2.87524 -29.4338
LeftForeArm  149.788 -68.3094 -153.007
LeftHand  0.131382 6.84607 12.2376
RightShoulder  1.8068 4.73617 15.166
RightArm  -5.12196 36.2168 31.1275
RightForeArm  23.7879 63.2142 20.5292
RightHand  -1.2538 1.44172 -21.3766
LeftUpLeg  -43.6984 5.65287 -5.78934
LeftLeg  10.1768 -6.62803 -5.39421
LeftFoot  -2.39718 2.51968 -31.1817
LeftToes  -6.27559e-011 -2.10356e-011 8.24929e-012
20
root  0.876565 41.9469 14.8218 21.6676 -2.89302 31.5735
RightUpLeg  -36.3431 -59.9762 -1.43073
RightLeg  15.1939 -16.8356 6.12262
RightFoot  -2.89888 -0.338433 4.2546
RightToes  -1.74623e-010 0 -2.59999e-017
Spine  30.2751 5.33146 13.8135
Spine1  11.4337 18.3024 -32.7462
HEad  -6.40783 46.354 -38.6964
LeftShoulder1  2.31156 -3.3893 -27.444
LeftArm  16.645 -7.23973 -34.1479
LeftForeArm  154.47 -66.2194 -156.043
LeftHand  0.131433 7.83279 7.89546
RightShoulder  2.13119 5.32969 17.5667
RightArm  -8.18994 19.9038 25.2769
RightForeArm  26.2653 66.7488 24.3706
RightHand  -1.68671 5.1141 -18.8438
LeftUpLeg  -60.4845 8.4036 -21.6649
LeftLeg  38.7828 -9.28935 -6.93217
LeftFoot  -1.01118 2.38702 -26
LeftToes  -6.27559e-011 -2.10356e-011 8.24929e-012
21
root  -0.799554 42.8107 14.15 38.376 6.00206 43.6041
RightUpLeg  -29.3744 -34.2069 -27.7402
RightLeg  8.15492 -44.4687 7.46284
RightFoot  6.11546 -0.726313 5.00069
RightToes  -1.74623e-010 0 -2.59999e-017
Spine  28.1744 7.14578 9.90432
Spine1  16.7386 19.5126 -30.3224
HEad  -7.52437 46.3946 -41.7919
LeftShoulder1  2.19577 -3.22222 -26.5248
LeftArm  22.4203 -15.471 -40.2379
LeftForeArm  154.76 -64.6842 -157.619
LeftHand  0.130262 8.81168 5.72275
RightShoulder  2.53715 5.78126 21.0191
RightArm  -14.1005 1.39862 18.7434
RightForeArm  13.3193 63.1742 21.6945
RightHand  -2.24444 7.2083 -20.7827
LeftUpLeg  -78.6719 13.7632 -30.3834
LeftLeg  67.2512 -6.24986 -15.3342
LeftFoot  5.3506 3.89529 -26.352
LeftToes  -6.27559e-011 -2.10356e-011 8.24929e-012
22
root  -1.45437 42.4154 14.0815 56.2661 8.42392 54.9654
RightUpLeg  -37.3584 -35.9712 -35.755
RightLeg  11.6972 -34.6102 1.80364
RightFoot  6.64864 -0.656085 4.429
RightToes  -1.74623e-010 0 -2.59999e-017
Spine  22.6797 8.02606 6.37032
Spine1  18.7888 17.9428 -27.708
HEad  -5.57232 47.3264 -41.4409
LeftShoulder1  1.98763 -2.87684 -24.967
LeftArm  24.7767 -17.5605 -40.4728
LeftForeArm  151.855 -61.3342 -160.165
LeftHand  0.187917 9.90066 5.91341
RightShoulder  2.86182 5.91574 24.2744
RightArm  -11.8306 -15.4264 17.7622
RightForeArm  -3.27761 54.1453 15.9211
RightHand  -2.76201 7.39269 -25.0505
LeftUpLeg  -93.6667 26.4622 -32.6803
LeftLeg  87.2204 -0.512396 -14.6951
LeftFoot  16.881 6.60005 -26.2406
LeftToes  -6.27559e-011 -2.10356e-011 8.24929e-012
23
root  -1.61723 41.746 14.3387 72.814 7.45813 66.6844
RightUpLeg  -34.4524 -39.4636 -46.6761
RightLeg  4.19875 -33.3508 2.1016
RightFoot  4.98602 -0.406864 3.0749
RightToes  -1.74623e-010 0 -2.59999e-017
Spine  18.4428 4.15519 2.49327
Spine1  17.1275 13.544 -27.8989
HEad  -4.29943 49.7928 -41.5476
LeftShoulder1  1.64205 -2.06195 -23.2044
LeftArm  21.7021 -12.4526 -35.0055
LeftForeArm  154.876 -56.4045 -163.703
LeftHand  0.0568162 11.5466 2.3406
RightShoulder  2.91763 5.6034 26.0059
RightArm  -1.19616 -30.5121 20.5415
RightForeArm  -5.659 48.6314 13.1332
RightHand  -2.41998 6.24901 -24.0554
LeftUpLeg  -92.056 42.2889 -22.2633
LeftLeg  82.0825 -1.45026 -10.7313
LeftFoot  26.9731 9.40326 -27.1121
LeftToes  -6.27559e-011 -2.10356e-011 8.24929e-012
24
root  -1.9586 40.5968 15.2162 86.1969 4.37944 75.6772
RightUpLeg  -31.3907 -42.2026 -55.188
RightLeg  1.75236 -42.0858 0.230285
RightFoot  -0.452922 -0.186859 1.95457
RightToes  -1.74623e-010 0 -2.59999e-017
Spine  15.206 -1.18506 -1.82209
Spine1  16.5536 9.0196 -29.2687
HEad  -4.21748 52.0802 -41.9227
LeftShoulder1  1.20482 -0.784764 -21.7106
LeftArm  16.6095 -4.91052 -30.0199
LeftForeArm  160.439 -53.7888 -165.577
LeftHand  -0.350479 12.3153 -4.49689
RightShoulder  2.85526 5.3466 26.2414
RightArm  9.04761 -41.7555 22.0901
RightForeArm  -1.19835 45.1828 11.3668
RightHand  -2.06171 6.61257 -20.0799
LeftUpLeg  -67.8812 51.0971 -2.1283
LeftLeg  43.7796 -7.38293 -6.14292
LeftFoot  29.7757 6.2836 -17.0777
LeftToes  -6.27559e-011 -2.10356e-011 8.24929e-012
25
root  -0.933589 40.0406 14.6131 94.0886 2.09465 77.8188
RightUpLeg  -31.7526 -46.1917 -59.5636
RightLeg  0.612258 -47.5199 0.594064
RightFoot  -3.36697 -0.0163257 -0.0940707
RightToes  -1.74623e-010 0 -2.59999e-017
Spine  10.6988 -3.56731 -1.31832
Spine1  16.2439 6.05711 -28.653
HEad  -3.94503 52.8404 -40.3695
LeftShoulder1  1.07231 -0.30905 -21.7523
LeftArm  13.3139 -0.078058 -27.2894
LeftForeArm  155.677 -56.7555 -163.588
LeftHand  -0.522615 13.3613 -6.27413
RightShoulder  2.87458 5.38509 26.3226
RightArm  14.1975 -47.8526 19.8781
RightForeArm  -1.22514 41.9869 10.1585
RightHand  -1.69835 6.38508 -16.9415
LeftUpLeg  -25.6351 24.8552 36.2956
LeftLeg  8.93567 13.935 4.38362
LeftFoot  32.6982 2.00207 -5.46596
LeftToes  -6.27559e-011 -2.10356e-011 8.24929e-012
26
root  -0.113432 39.6771 14.1052 98.8692 -0.0668182 76.699
RightUpLeg  -35.7574 -48.3268 -60.7072
RightLeg  3.64443 -47.0936 -2.35921
RightFoot  -4.79782 -0.0295546 -0.0878387
RightToes  -1.74623e-010 0 -2.59999e-017
Spine  9.2188 -4.21126 -1.08218
Spine1  15.4598 4.9394 -28.5006
HEad  -4.56437 52.598 -38.8687
LeftShoulder1  1.18714 -0.680516 -22.0225
LeftArm  12.0899 1.83749 -27.6265
LeftForeArm  145.862 -63.619 -157.634
LeftHand  -0.225103 13.9709 -1.86053
RightShoulder  2.86649 5.35833 26.3291
RightArm  15.1482 -49.9501 14.1247
RightForeArm  -1.20704 42.7186 10.4279
RightHand  -1.41793 5.42328 -15.4461
LeftUpLeg  -13.9923 12.6432 42.6177
LeftLeg  20.4562 8.11567 5.61911
LeftFoot  29.6989 3.64743 -10.2048
LeftToes  -6.27559e-011 -2.10356e-011 8.24929e-012
27
root  0.425713 39.7965 13.3333 104.462 -0.796539 76.6046
RightUpLeg  -35.4303 -49.2224 -63.613
RightLeg  2.13302 -45.9706 -2.25068
RightFoot  -2.49327 -0.00227891 -0.0103733
RightToes  -1.74623e-010 0 -2.59999e-017
Spine  7.52423 -5.0094 0.433317
Spine1  15.3439 3.71847 -27.1244
HEad  -6.72781 51.173 -38.8681
LeftShoulder1  1.29983 -1.04677 -22.2286
LeftArm  10.4811 2.38065 -29.0535
LeftForeArm  140.36 -69.4506 -150.237
LeftHand  0.222217 14.1526 3.77359
RightShoulder  2.79039 5.21503 25.9741
RightArm  12.4993 -46.838 9.51191
RightForeArm  0.921651 45.8253 11.4816
RightHand  -1.49541 5.09462 -16.7313
LeftUpLeg  -11.4331 26.0176 42.2791
LeftLeg  45.1633 -5.56169 -5.28581
LeftFoot  32.5133 3.15186 -8.37104
LeftToes  -6.27559e-011 -2.10356e-011 8.24929e-012
